<svg id="Capa_1" data-name="Capa 1" xmlns="http://www.w3.org/2000/svg" viewBox="0 0 400 400"><defs><style>.cls-1{fill:#c1272d;}.cls-2{fill:none;stroke:#c1272d;stroke-miterlimit:10;stroke-width:11px;}</style></defs><title>helado2</title><path class="cls-1" d="M199.43,327.36c-19,0-37.91-.5-56.83.15-15.86.55-32.18-12.68-34-27.88-1.67-13.88-3.79-27.72-5.76-41.57-1-6.77-1.87-13.55-3.12-20.27A10.43,10.43,0,0,0,97,232.86c-10.46-10.87-7.55-24.83,6.46-30,2.49-.93,3.37-2.33,3.89-4.9,3.69-18.1,13.25-31.67,30.77-38.88a7.78,7.78,0,0,1,2.27-.88c7.94-.39,10.24-5.44,12.12-12.4,4.81-17.82,22.92-35,47.63-34.17,9.14.3,7.76,1.37,10.91-7.46,4.17-11.68,18.51-19.51,31.64-14.08,3.84,1.59,6.4,1.11,8.59-2.52a30,30,0,0,1,5.41-6.91c1.31-1.16,4.37-2.25,5.26-1.57,1.47,1.12,2.19,3.65,2.49,5.69.18,1.21-.89,2.73-1.69,3.91A45.75,45.75,0,0,1,258,94.91c-2.64,2.8-2.38,5.52-1.13,8.94,4.67,12.78.76,24-9.27,30.5-3.76,2.42-4.52,4.37-2.47,8.19a19.47,19.47,0,0,1,2.43,7.86c.26,4.76,3,6.25,7,7.41a57.14,57.14,0,0,1,12.66,4.92c13.49,7.85,21.48,19.65,23.66,35.17.43,3,2,4.47,4.69,5.52,9.51,3.67,13.57,10,11.9,19.74-.58,3.42-3.26,6.5-5,9.71-1.08,1.94-3,3.71-3.31,5.74-2,13.36-3.49,26.78-5.43,40.15-1.28,8.84-2.2,17.86-4.76,26.35-4.13,13.73-16.36,22.12-30.68,22.21-19.6.12-39.2,0-58.8,0Zm-.35-9.1h0c4.57,0,9.14,0,13.71,0,15-.08,30,.16,45-.38a24.53,24.53,0,0,0,23.51-21.62q2.52-19.62,5.08-39.22c.54-4.2.79-8.45,1.64-12.58,1.14-5.57.71-6.47-4.82-6.51q-16.41-.11-32.81,0c-5.43,0-5.74.38-5.75,6,0,15.18,0,30.36,0,45.54,0,6.45-2,8.61-8.43,8.63q-36.72.12-73.45,0c-6.42,0-7.76-1.47-7.78-7.82,0-15.18,0-30.36,0-45.54,0-6.32-.45-6.76-6.61-6.8-8.81,0-17.63,0-26.44,0-13.19,0-13,0-10.9,13,2.12,13.5,3.66,27.1,5.58,40.64,1.11,7.8,2.65,15.35,9.42,20.77,5.87,4.7,12.55,5.89,19.69,5.9Zm.21-80.32c-9.62,0-19.24,0-28.86,0-5.58,0-6,.43-6,5.72q-.08,19.32,0,38.64c0,5.24.7,6,5.91,6q29.1.09,58.2,0c5,0,6-1,6-6.14q.12-19.06,0-38.15c0-5.44-.74-6.06-6.37-6.09C218.53,237.9,208.91,237.94,199.29,237.94Zm.09-10.36h87.14a31,31,0,0,0,5.37-.19c3.58-.65,5.87-2.81,6.21-6.54a6.8,6.8,0,0,0-4.94-7.54,18,18,0,0,0-5.77-.73q-87.87,0-175.74,0c-1.93,0-4.26-.14-5.7.83-2,1.32-4.18,3.5-4.51,5.6a8.43,8.43,0,0,0,2.58,6.64c1.74,1.46,4.78,1.85,7.25,1.86C140.64,227.62,170,227.57,199.38,227.58Zm.06-106c-16.45-.11-33,12.17-37.45,27.62-1.6,5.55-.8,7.25,4.66,8.33,12.1,2.39,21.47,9,29.12,18.36,3.56,4.37,4,4.35,7.42-.25a46.61,46.61,0,0,1,26.33-17.53c9.75-2.5,9.94-2.4,6.19-11.83a15.32,15.32,0,0,0-2.49-4.72c-1.34-1.46-3.08-3-4.91-3.46-5.81-1.44-11.12-4.2-13.88-9.22C210.82,122.36,205.15,122.09,199.44,121.62ZM242,202.87h29.33c11.2,0,11.52-.36,8-10.84-6-17.92-24.66-27.54-40-26.08-16.81,1.6-31.95,13.34-35.13,30.39-1.09,5.83-.95,6.48,5.08,6.51C220.21,202.91,231.13,202.87,242,202.87Zm-87.2,0c10.94,0,21.87,0,32.81,0,2.43,0,5.51.12,5.55-3.28,0-3.8.25-8.1-1.33-11.35-9.52-19.58-33.63-29-54.37-17.17-10,5.7-17.2,14-19.17,25.79-.91,5.44-.29,6,5.17,6C133.94,202.91,144.39,202.86,154.84,202.85Zm78.95-74.23a15.19,15.19,0,0,0,15.29-14.68A14.88,14.88,0,0,0,234.16,99c-8.13,0-15.35,6.78-15.46,14.61S225.71,128.57,233.79,128.62Z"/><circle class="cls-2" cx="200.5" cy="200.5" r="182"/></svg>